<?xml version="1.0" encoding="UTF-8"?>
<svg width="32px" height="32px" viewBox="0 0 32 32" version="1.1" xmlns="http://www.w3.org/2000/svg" xmlns:xlink="http://www.w3.org/1999/xlink">
    <!-- Generator: Sketch 46.1 (44463) - http://www.bohemiancoding.com/sketch -->
    <title>Combined Shape</title>
    <desc>Created with Sketch.</desc>
    <defs></defs>
    <g id="Content" stroke="none" stroke-width="1" fill="none" fill-rule="evenodd">
        <g id="Artboard-2-Copy-11" transform="translate(-24.000000, -694.000000)" fill="#FFBB19">
            <path d="M40,726 C31.163444,726 24,718.836556 24,710 C24,701.163444 31.163444,694 40,694 C48.836556,694 56,701.163444 56,710 C56,718.836556 48.836556,726 40,726 Z M34.456,715.429333 C34.8240018,715.472 35.2426643,715.493333 35.712,715.493333 C36.8106722,715.493333 37.930661,715.376001 39.072,715.141333 L39.072,713.253333 C37.73866,713.562668 36.7040037,713.717333 35.968,713.717333 C34.2506581,713.717333 33.392,713.248005 33.392,712.309333 L33.392,707.893333 C33.392,707.306664 33.6426642,706.928001 34.144,706.757333 C34.3786678,706.672 34.6053322,706.618667 34.824,706.597333 C35.0426678,706.576 35.3493314,706.565333 35.744,706.565333 C36.6826714,706.565333 37.7706605,706.714665 39.008,707.013333 L39.008,705.141333 C37.6319931,704.906665 36.5333374,704.789333 35.712,704.789333 C32.5013173,704.789333 30.896,705.834656 30.896,707.925333 L30.896,712.485333 C30.896,712.997336 31.0079989,713.439998 31.232,713.813333 C31.4453344,714.186669 31.7119984,714.477332 32.032,714.685333 C32.3520016,714.893334 32.7573309,715.061333 33.248,715.189333 C33.6853355,715.306667 34.0879982,715.386666 34.456,715.429333 Z M39.552,704.949333 L43.28,715.333333 L46.336,715.333333 L50.176,704.949333 L47.712,704.949333 L44.928,713.253333 L44.864,713.253333 L42.08,704.949333 L39.552,704.949333 Z" id="Combined-Shape"></path>
        </g>
    </g>
</svg>