<?xml version="1.0" encoding="UTF-8"?>
<svg width="32px" height="32px" viewBox="0 0 32 32" version="1.1" xmlns="http://www.w3.org/2000/svg" xmlns:xlink="http://www.w3.org/1999/xlink">
    <!-- Generator: Sketch 46.1 (44463) - http://www.bohemiancoding.com/sketch -->
    <title>Combined Shape</title>
    <desc>Created with Sketch.</desc>
    <defs></defs>
    <g id="Content" stroke="none" stroke-width="1" fill="none" fill-rule="evenodd">
        <g id="Artboard-2-Copy-11" transform="translate(-72.000000, -694.000000)" fill="#FFBB19">
            <path d="M86.9739517,725.967631 C78.6155217,725.438634 72,718.491886 72,710 C72,701.163444 79.163444,694 88,694 C96.836556,694 104,701.163444 104,710 C104,717.379882 99.0036292,723.592799 92.20903,725.440609 C92.2092696,722.468196 92.2134001,719.495782 92.2014667,716.523369 C92.2001058,716.1871 92.2865938,716.08772 92.6227175,716.093922 C93.7562089,716.1149 94.890532,716.090246 96.024099,716.109081 C96.3558378,716.114594 96.5055285,716.053572 96.5483189,715.673126 C96.7128275,714.208151 96.9208825,712.748153 97.1096591,711.285935 C97.1190337,711.213275 97.1001333,711.136865 97.0893979,710.997518 L95.8508206,710.997518 C94.7547519,710.997442 93.6586832,710.995221 92.5626144,710.999279 C92.3552399,711.000045 92.1967794,710.997212 92.2046419,710.70581 C92.2362433,709.533845 92.2156041,708.359277 92.2816041,707.18961 C92.3432192,706.099033 93.0122914,705.493106 94.110099,705.460336 C95.0290337,705.432926 95.949178,705.426342 96.8684151,705.437597 C97.2164082,705.441884 97.3264082,705.317085 97.3222502,704.972011 C97.3074323,703.734585 97.31091,702.496775 97.3200577,701.259195 C97.3222502,700.952863 97.2538309,700.807008 96.9029649,700.799505 C95.5953636,700.771789 94.2866282,700.63696 92.9818241,700.672639 C89.8943395,700.757012 87.4805388,702.628542 87.1072192,705.995518 C86.9436179,707.471212 87.0109787,708.973473 86.9794529,710.463791 C86.9681883,710.99637 86.9762021,710.997135 86.4680852,710.997365 C85.3342158,710.997824 84.2001952,711.006706 83.066477,710.99147 C82.7706488,710.987412 82.6654117,711.086715 82.6669237,711.380874 C82.6743326,712.835359 82.6744838,714.289922 82.6666969,715.744407 C82.6651849,716.027923 82.7702708,716.111072 83.0468206,716.107703 C84.2057141,716.093615 85.3650612,716.113905 86.5238034,716.094458 C86.8629512,716.088715 86.9855766,716.177606 86.984367,716.537916 C86.9736959,719.681137 86.9745883,722.824358 86.9739517,725.967631 Z" id="Combined-Shape"></path>
        </g>
    </g>
</svg>