<?xml version="1.0" encoding="UTF-8"?>
<svg width="32px" height="32px" viewBox="0 0 32 32" version="1.1" xmlns="http://www.w3.org/2000/svg" xmlns:xlink="http://www.w3.org/1999/xlink">
    <!-- Generator: Sketch 46.1 (44463) - http://www.bohemiancoding.com/sketch -->
    <title>Combined Shape</title>
    <desc>Created with Sketch.</desc>
    <defs></defs>
    <g id="Content" stroke="none" stroke-width="1" fill="none" fill-rule="evenodd">
        <g id="Artboard-2-Copy-11" transform="translate(-120.000000, -694.000000)" fill="#FFBB19">
            <path d="M136,726 C127.163444,726 120,718.836556 120,710 C120,701.163444 127.163444,694 136,694 C144.836556,694 152,701.163444 152,710 C152,718.836556 144.836556,726 136,726 Z M136.32135,712.51079 C139.617636,709.761569 142.898185,707.025447 146.187361,704.282159 C145.928364,704.052464 145.636519,704.000166 145.320783,704.000261 C140.021537,704.001637 134.722243,704.000119 129.42295,704.000024 C128.664824,703.999976 127.906652,704.000925 127.148574,704.007522 C126.8928,704.009753 126.663997,704.09399 126.462023,704.286953 C129.751673,707.030905 133.026724,709.762708 136.32135,712.51079 Z M146.645867,705.70697 C143.171687,708.60478 139.748178,711.460258 136.321872,714.318109 C132.883669,711.450719 129.462529,708.597472 126.000294,705.710007 L126.000294,705.899743 C126.000294,709.505384 125.999109,713.110977 126.001337,716.71657 C126.001811,717.449933 126.53393,717.966984 127.284613,717.967126 C133.310416,717.968313 139.336172,717.967933 145.361927,717.966462 C145.479338,717.966414 145.600542,717.962665 145.713497,717.934428 C146.29771,717.788591 146.644113,717.308936 146.644587,716.643343 C146.646436,713.899628 146.645678,711.155818 146.645867,708.412102 C146.645915,707.53537 146.645867,706.658638 146.645867,705.70697 Z" id="Combined-Shape"></path>
        </g>
    </g>
</svg>